HIERARCHY
ROOT pelvis
{
  OFFSET 0 100 0
  CHANNELS 6 Xposition Yposition Zposition Zrotation Xrotation Yrotation
  JOINT pelvis_right_femur
  {
    OFFSET -10.78128 -3.44521 -0.5502486
    CHANNELS 3 Zrotation Xrotation Yrotation
    JOINT right_femur_tibia
    {
      OFFSET -0.8047443 -44.0398 -0.1307829
      CHANNELS 3 Zrotation Xrotation Yrotation
      JOINT right_tibia_foot
      {
        OFFSET 3.006224 -47.83518 -5
        CHANNELS 3 Zrotation Xrotation Yrotation
        End Site
        {
          OFFSET 0 -5 15
        }
      }
    }
  }
  JOINT pelvis_left_femur
  {
    OFFSET 10.78128 -3.44521 -0.5502486
    CHANNELS 3 Zrotation Xrotation Yrotation
    JOINT left_femur_tibia
    {
      OFFSET 0.8047443 -44.0398 -0.1307829
      CHANNELS 3 Zrotation Xrotation Yrotation
      JOINT left_tibia_foot
      {
        OFFSET -4.370144 -48.10324 -4.275266
        CHANNELS 3 Zrotation Xrotation Yrotation
        End Site
        {
          OFFSET 0 -5 15
        }
      }
    }
  }
  JOINT pelvis_spine1
  {
    OFFSET 0 6.468898 -3.129235
    CHANNELS 3 Zrotation Xrotation Yrotation
    JOINT spine1
    {
      OFFSET 0 23.15396 4.99043
      CHANNELS 3 Zrotation Xrotation Yrotation
      JOINT spine2
      {
        OFFSET 0 20.79997 -5.064912
        CHANNELS 3 Zrotation Xrotation Yrotation
        JOINT neck
        {
          OFFSET 0 14.38658 9.616178
          CHANNELS 3 Zrotation Xrotation Yrotation
          End Site
          {
            OFFSET 0 20 0
          }
        }
      }
      JOINT right_manubrium
      {
        OFFSET -5.722621 16.35077 3.967754
        CHANNELS 3 Zrotation Xrotation Yrotation
        JOINT right_clavicle
        {
          OFFSET -13.16364 1.694482 -4.693211
          CHANNELS 3 Zrotation Xrotation Yrotation
          JOINT right_humerus
          {
            OFFSET -28.5034 -0.3100689 -2.792744
            CHANNELS 3 Zrotation Xrotation Yrotation
            JOINT right_radius
            {
              OFFSET -25.15693 0.02248979 -1.271978
              CHANNELS 3 Zrotation Xrotation Yrotation
              End Site
              {
                OFFSET -15 0 0
              }
            }
          }
        }
      }
      JOINT left_manubrium
      {
        OFFSET 5.722621 16.35077 3.967754
        CHANNELS 3 Zrotation Xrotation Yrotation
        JOINT left_clavicle
        {
          OFFSET 13.16364 1.694482 -4.693211
          CHANNELS 3 Zrotation Xrotation Yrotation
          JOINT left_humerus
          {
            OFFSET 29.39168 -1.063119 -2.237045
            CHANNELS 3 Zrotation Xrotation Yrotation
            JOINT left_radius
            {
              OFFSET 24.59957 -0.9528479 0.9047498
              CHANNELS 3 Zrotation Xrotation Yrotation
              End Site
              {
                OFFSET 15 -0 -0
              }
            }
          }
        }
      }
    }
  }
}
MOTION
Frames: 11
Frame Time: 0.0416666666667
497.1998 100.7532 3071.814 0.6219494 -4.236859 14.49697 6.241951 -8.104291 5.12617 -0 15.33257 -0 -2.17429 -5.522031 -5.428419 -2.700403 0.2777981 -6.413469 -0 58.75403 -0 -9.45124 -5.534198 12.87994 2.354354 -2.58877 9.949402 0.3760189 18.7933 -6.519109 1.803763 15.77928 -3.299759 -4.594872 -18.65764 2.69994 -0.9277683 -37.01827 13.86852 86.34255 17.09799 -2.108139 -0 0 43.31016 -22.88217 20.52059 20.26073 -1.851532 -15.6102 -5.343093 -93.82057 7.015098 46.47195 -0 0 1.790485 0.7516603 9.7157 11.98156
498.6149 101.8084 3077.728 1.482683 -5.01134 13.77783 5.339571 -2.618319 4.878557 -0 13.96106 -0 -2.358243 -7.210827 -4.891874 -2.426181 -6.178153 -5.956932 -0 59.6654 -0 -8.814476 -5.34328 14.42144 2.349322 -2.618775 9.936168 0.4162287 18.82413 -6.535908 1.790726 15.7754 -3.289687 -4.585084 -18.65915 2.693143 -0.8356627 -37.02495 13.93121 86.23482 16.99194 -2.072027 -0 0 43.37812 -22.94588 20.60145 20.30843 -1.818794 -15.6172 -5.348292 -93.91355 6.989466 46.5036 -0 0 2.045614 0.8057077 9.764664 11.85404
499.9662 102.4212 3083.367 2.164318 -5.609192 13.10907 4.586547 2.316943 4.680196 -0 12.20746 -0 -2.090079 -8.608698 -4.303588 -1.738184 -12.26383 -5.226848 -0 55.85198 -0 -7.857282 -5.769831 16.24499 2.344504 -2.648517 9.927304 0.456363 18.85823 -6.551941 1.777261 15.76234 -3.288407 -4.581274 -18.65289 2.680541 -0.7349968 -37.04181 13.99592 86.11523 16.88372 -2.016729 -0 0 43.47886 -23.00762 20.69199 20.37368 -1.794158 -15.61188 -5.350454 -94.01046 6.957043 46.56039 -0 0 2.320109 0.8405856 9.795543 11.75857
501.3367 102.4573 3088.841 2.390267 -5.900972 12.46958 4.191151 6.610761 4.500652 -0 10.76272 -0 -1.658736 -10.35399 -3.589612 -0.5822074 -17.69823 -4.344147 -0 48.06932 -0 -6.892318 -6.278207 17.90161 2.340244 -2.675943 9.923515 0.4936157 18.89329 -6.566163 1.764311 15.74081 -3.296203 -4.583835 -18.63913 2.662889 -0.6327553 -37.06785 14.05813 85.99218 16.78061 -1.946118 -0 0 43.60583 -23.06295 20.78591 20.45203 -1.779453 -15.59452 -5.349449 -94.10433 6.920069 46.63844 -0 0 2.594327 0.8533886 9.805782 11.70256
502.8126 101.9028 3094.255 2.140093 -5.872133 11.82549 4.09401 10.29631 4.157426 -0 10.01959 -0 -1.402325 -12.63558 -2.76988 0.7787828 -22.11506 -3.572373 -0 38.06209 -0 -6.16318 -6.604623 19.08395 2.336841 -2.699186 9.925123 0.5255019 18.92711 -6.577745 1.752748 15.71211 -3.312784 -4.592759 -18.61878 2.641263 -0.5357587 -37.10161 14.11371 85.87395 16.68926 -1.864839 -0 0 43.75113 -23.10809 20.87699 20.53821 -1.775743 -15.56614 -5.345376 -94.18869 6.881018 46.73262 -0 0 2.849862 0.8430603 9.794481 11.68988
504.4531 100.8845 3099.746 1.621969 -5.635811 11.16264 4.075039 13.46998 3.602777 -0 10.29307 -0 -1.438336 -14.92436 -2.026824 1.901575 -25.0741 -3.157956 -0 28.15605 -0 -5.760842 -6.685792 19.71707 2.334508 -2.716811 9.932012 0.5501201 18.95778 -6.586114 1.743279 15.67802 -3.337259 -4.607584 -18.59317 2.616951 -0.4498851 -37.14126 14.15933 85.76771 16.61494 -1.777841 -0 0 43.90625 -23.14039 20.95975 20.62671 -1.78319 -15.52845 -5.338547 -94.25836 6.842344 46.83704 -0 0 3.07145 0.8104829 9.762497 11.72067
506.2926 99.64934 3105.48 1.16096 -5.370301 10.49139 3.844798 16.1929 3.06311 -0 11.94356 -0 -1.599869 -16.22748 -1.575712 2.365962 -26.34674 -3.229757 -0 20.54751 -0 -5.561496 -6.574691 19.92787 2.333367 -2.727884 9.943689 0.5661842 18.98379 -6.590917 1.736418 15.64058 -3.368219 -4.627442 -18.5639 2.591357 -0.3797948 -37.18464 14.19262 85.67925 16.56141 -1.690063 -0 0 44.06248 -23.1583 21.02976 20.71233 -1.801147 -15.48367 -5.329445 -94.30962 6.806333 46.94555 -0 0 3.247386 0.7581076 9.712155 11.79204
508.3508 98.49165 3111.597 1.050353 -5.21699 9.85941 3.147518 18.39551 2.860092 -0 15.28805 -0 -1.603205 -15.57391 -1.436311 1.941524 -26.13963 -3.796294 -0 16.5091 -0 -5.348301 -6.460167 19.90881 2.333461 -2.731931 9.959385 0.5729478 19.0039 -6.591955 1.732507 15.60198 -3.403885 -4.651159 -18.53261 2.565904 -0.3289567 -37.22939 14.21202 85.61294 16.53105 -1.606222 -0 0 44.21134 -23.16129 21.08362 20.7904 -1.828358 -15.4344 -5.318655 -94.34014 6.775018 47.05215 -0 0 3.369216 0.6894366 9.646783 11.899
510.6255 97.67586 3118.136 1.421413 -5.181391 9.375103 1.90009 19.80854 3.08321 -0 20.45109 -0 -1.312847 -12.45635 -1.40013 0.6407897 -24.98822 -4.791859 -0 16.00893 -0 -5.006128 -6.662138 19.76715 2.334768 -2.728852 9.978157 0.5701064 19.01717 -6.589149 1.731736 15.56439 -3.442236 -4.677357 -18.50094 2.54199 -0.2998188 -37.27302 14.21663 85.57197 16.5252 -1.530714 -0 0 44.34473 -23.14953 21.11881 20.85686 -1.863166 -15.38342 -5.30681 -94.34871 6.750144 47.15111 -0 0 3.431225 0.6085957 9.570325 12.03525
513.0706 97.39473 3124.995 2.176718 -5.132388 9.196008 0.3187213 19.92775 3.488717 -0 27.37478 -0 -0.8700836 -7.110494 -1.297221 -1.288975 -23.32027 -6.054472 -0 17.91168 -0 -4.497569 -7.438989 19.52012 2.337219 -2.718801 9.998966 0.5577062 19.02283 -6.582517 1.734174 15.52996 -3.481123 -4.704552 -18.47054 2.520958 -0.2940381 -37.31305 14.2061 85.55857 16.54442 -1.467575 -0 0 44.45511 -23.12368 21.13343 20.90817 -1.903681 -15.33352 -5.294537 -94.33495 6.733148 47.23713 -0 0 3.429913 0.5200412 9.487034 12.19362
515.5827 97.75402 3131.946 2.995107 -4.986007 9.455673 -1.060146 18.07276 3.716088 -0 35.89435 -0 -0.5769922 -0.6400589 -1.284079 -3.367889 -20.97339 -7.262912 -0 20.51961 -0 -3.692823 -8.718141 19.23288 2.340714 -2.702086 10.02074 0.5360932 19.02025 -6.572184 1.739787 15.50069 -3.518363 -4.73124 -18.44309 2.504084 -0.312641 -37.34709 14.1805 85.57418 16.58873 -1.420422 -0 0 44.53565 -23.08475 21.12609 20.94123 -1.947915 -15.28739 -5.282422 -94.29909 6.725134 47.30537 -0 0 3.363742 0.4283755 9.401256 12.36625
